<svg width="800" height="600" xmlns="http://www.w3.org/2000/svg">
 <!-- Created with Method Draw - http://github.com/duopixel/Method-Draw/ -->
 <g>
  <title>background</title>
  <rect fill="transparent" id="canvas_background" height="602" width="802" y="-1" x="-1"/>
  <g display="none" overflow="visible" y="0" x="0" height="100%" width="100%" id="canvasGrid">
   <rect fill="url(#gridpattern)" stroke-width="0" y="0" x="0" height="100%" width="100%"/>
  </g>
 </g>
 <g>
  <title>Layer 1</title>
  <rect stroke="#000" id="svg_7" height="160.00001" width="400" y="306.11979" x="200.66669" fill-opacity="null" stroke-opacity="null" stroke-width="1.5" fill="none"/>
  <line stroke="#000" stroke-linecap="null" stroke-linejoin="null" id="svg_9" y2="512.33336" x2="200" y1="465.45313" x1="200" fill-opacity="null" stroke-opacity="null" stroke-width="1.5" fill="none"/>
  <line stroke="#000" stroke-linecap="null" stroke-linejoin="null" id="svg_10" y2="509.45314" x2="600" y1="466.45313" x1="600" fill-opacity="null" stroke-opacity="null" stroke-width="1.5" fill="none"/>
  <path stroke="#000" d="m601,509.90537c-1.06933,0 -3.208,0 -14.97067,0c-16.04,0 -24.59878,-0.16696 -35.288,-0.23107c-19.27026,-0.11558 -28.79205,-0.46186 -50.25867,-0.69322c-8.54406,-0.09208 -23.52533,0 -31.01067,0c-14.97067,0 -21.38667,0 -31.01067,0c-3.208,0 -9.624,0 -12.832,0c-5.34667,0 -8.55467,-0.23107 -14.97067,-0.23107c-3.208,0 -9.52538,0.11466 -13.90133,0.23107c-7.42924,0.19763 -10.69333,0 -18.17867,0c-3.208,0 -9.624,0.23107 -12.832,0.23107c-3.208,0 -8.57027,-0.06831 -11.76267,0c-5.42603,0.1161 -8.55467,0.23107 -16.04,0.23107c-3.208,0 -8.56925,0.15484 -12.832,0.23107c-6.48234,0.11593 -9.54464,0.34605 -14.97067,0.46215c-2.12826,0.04554 -7.50136,0.1746 -9.624,0.23107c-4.37595,0.11641 -6.31738,0.34574 -10.69333,0.46215c-2.12264,0.05647 -7.50136,0.1746 -9.624,0.23107c-4.37595,0.11641 -6.31738,0.34574 -10.69333,0.46215c-3.18395,0.08471 -8.57027,0.16277 -11.76267,0.23107c-5.42603,0.1161 -8.43164,0.29446 -10.69333,0.46215c-5.15743,0.38239 -7.48533,0.23107 -10.69333,0.23107c-2.13867,0 -3.94953,0.10602 -5.34667,0.23107c-1.97587,0.17686 -4.27733,0 -5.34667,0c-2.13867,0 -4.27733,0 -5.34667,0c-3.208,0 -5.34667,0 -7.48533,0c-1.06933,0 -4.27733,0 -5.34667,0c-2.13867,0 -3.208,0 -4.27733,0c0,0 -1.06933,0 -1.06933,0c-1.06933,0 -1.06933,0 -1.06933,0c-1.06933,0 -1.06933,0 -1.06933,-0.23107l0,0l0,0" id="svg_11" fill-opacity="null" stroke-opacity="null" stroke-width="1.5" fill="none"/>
  <line stroke="#000" stroke-linecap="null" stroke-linejoin="null" id="svg_13" y2="121.45312" x2="400.99999" y1="305" x1="186" fill-opacity="null" stroke-opacity="null" stroke-width="1.5" fill="none"/>
  <line stroke="#000" stroke-linecap="null" stroke-linejoin="null" id="svg_14" y2="306.5" x2="615.5" y1="305.5" x1="187.00001" fill-opacity="null" stroke-opacity="null" stroke-width="3.5" fill="none"/>
  <line stroke="#000" stroke-linecap="null" stroke-linejoin="null" id="svg_15" y2="305.45313" x2="616.99999" y1="121.45313" x1="399.00002" fill-opacity="null" stroke-opacity="null" stroke-width="1.5" fill="none"/>
  <line stroke-linecap="null" stroke-linejoin="null" id="svg_17" y2="114.45313" x2="431" y1="148.45313" x1="431" fill-opacity="null" stroke-opacity="null" stroke-width="1.5" stroke="#000" fill="none"/>
  <line stroke="#000" stroke-linecap="null" stroke-linejoin="null" id="svg_18" y2="114" x2="461" y1="172" x1="461" fill-opacity="null" stroke-opacity="null" stroke-width="1.5" fill="none"/>
  <line stroke-linecap="null" stroke-linejoin="null" id="svg_19" y2="113" x2="461" y1="113.45313" x1="431" fill-opacity="null" stroke-opacity="null" stroke-width="1.5" stroke="#000" fill="none"/>
  <rect id="svg_20" height="134.66605" width="57.33307" y="330.30194" x="338.66696" fill-opacity="null" stroke-opacity="null" stroke-width="1.5" stroke="#000" fill="none"/>
  <rect id="svg_21" height="65.33303" width="39.33315" y="342.96855" x="347.33358" fill-opacity="null" stroke-opacity="null" stroke-width="1.5" stroke="#000" fill="none"/>
  <rect id="svg_22" height="83.33295" width="66.66636" y="328.96862" x="495.33291" fill-opacity="null" stroke-opacity="null" stroke-width="1.5" stroke="#000" fill="none"/>
  <line stroke="#000" stroke-linecap="null" stroke-linejoin="null" id="svg_23" y2="328.96862" x2="397" y1="329.63528" x1="337.66668" fill-opacity="null" stroke-opacity="null" stroke-width="3.5" fill="none"/>
  <line stroke-linecap="null" stroke-linejoin="null" id="svg_24" y2="415" x2="600.66576" y1="414.96822" x1="396.66669" fill-opacity="null" stroke-opacity="null" stroke-width="1.5" stroke="#000" fill="none"/>
  <line stroke-linecap="null" stroke-linejoin="null" id="svg_25" y2="464.96799" x2="435.99985" y1="414.96822" x1="396.66669" fill-opacity="null" stroke-opacity="null" stroke-width="0.5" stroke="#000" fill="none"/>
  <line stroke-linecap="null" stroke-linejoin="null" id="svg_27" y2="464.96799" x2="451.99977" y1="414.96822" x1="412.66662" fill-opacity="null" stroke-opacity="null" stroke-width="0.5" stroke="#000" fill="none"/>
  <line stroke-linecap="null" stroke-linejoin="null" id="svg_28" y2="464.96799" x2="467.9997" y1="414.96822" x1="428.66654" fill-opacity="null" stroke-opacity="null" stroke-width="0.5" stroke="#000" fill="none"/>
  <line stroke-linecap="null" stroke-linejoin="null" id="svg_29" y2="464.96799" x2="483.99962" y1="414.96822" x1="444.66647" fill-opacity="null" stroke-opacity="null" stroke-width="0.5" stroke="#000" fill="none"/>
  <line stroke-linecap="null" stroke-linejoin="null" id="svg_30" y2="464.96799" x2="500.66621" y1="414.96822" x1="461.33306" fill-opacity="null" stroke-opacity="null" stroke-width="0.5" stroke="#000" fill="none"/>
  <line stroke-linecap="null" stroke-linejoin="null" id="svg_31" y2="464.96799" x2="516.66614" y1="414.96822" x1="477.33299" fill-opacity="null" stroke-opacity="null" stroke-width="0.5" stroke="#000" fill="none"/>
  <line stroke-linecap="null" stroke-linejoin="null" id="svg_33" y2="464.96799" x2="535.33272" y1="414.96822" x1="495.99957" fill-opacity="null" stroke-opacity="null" stroke-width="0.5" stroke="#000" fill="none"/>
  <line stroke-linecap="null" stroke-linejoin="null" id="svg_34" y2="464.96799" x2="551.33265" y1="414.96822" x1="511.99949" fill-opacity="null" stroke-opacity="null" stroke-width="0.5" stroke="#000" fill="none"/>
  <line stroke-linecap="null" stroke-linejoin="null" id="svg_35" y2="464.96799" x2="567.33257" y1="414.96822" x1="527.99942" fill-opacity="null" stroke-opacity="null" stroke-width="0.5" stroke="#000" fill="none"/>
  <line stroke-linecap="null" stroke-linejoin="null" id="svg_36" y2="464.96799" x2="583.3325" y1="414.96822" x1="543.99934" fill-opacity="null" stroke-opacity="null" stroke-width="0.5" stroke="#000" fill="none"/>
  <line stroke-linecap="null" stroke-linejoin="null" id="svg_37" y2="464.96799" x2="599.99909" y1="414.96822" x1="560.66593" fill-opacity="null" stroke-opacity="null" stroke-width="0.5" stroke="#000" fill="none"/>
  <line stroke="#000" stroke-linecap="null" stroke-linejoin="null" id="svg_38" y2="443.63476" x2="599.33243" y1="414.96823" x1="576.66585" fill-opacity="null" stroke-opacity="null" stroke-width="0.5" fill="none"/>
  <line stroke="#000" stroke-linecap="null" stroke-linejoin="null" id="svg_39" y2="464.96799" x2="418.6666" y1="436.30146" x1="396.00002" fill-opacity="null" stroke-opacity="null" stroke-width="0.5" fill="none"/>
  <line stroke="#000" stroke-linecap="null" stroke-linejoin="null" id="svg_40" y2="464.96799" x2="418.6666" y1="436.30146" x1="396.00002" fill-opacity="null" stroke-opacity="null" stroke-width="0.5" fill="none"/>
  <line stroke="#000" stroke-linecap="null" stroke-linejoin="null" id="svg_43" y2="464.968" x2="402.66666" y1="456.30137" x1="396.00001" fill-opacity="null" stroke-opacity="null" stroke-width="0.5" fill="none"/>
  <line stroke="#000" stroke-linecap="null" stroke-linejoin="null" id="svg_44" y2="424.30152" x2="599.33242" y1="415.63489" x1="592.66577" fill-opacity="null" stroke-opacity="null" stroke-width="0.5" fill="none"/>
  <line stroke="#000" stroke-linecap="null" stroke-linejoin="null" id="svg_46" y2="414.96822" x2="593.99913" y1="467.63465" x1="550.66598" fill-opacity="null" stroke-opacity="null" stroke-width="0.5" fill="none"/>
  <line stroke="#000" stroke-linecap="null" stroke-linejoin="null" id="svg_47" y2="414.96822" x2="577.33254" y1="467.63465" x1="533.99939" fill-opacity="null" stroke-opacity="null" stroke-width="0.5" fill="none"/>
  <line stroke="#000" stroke-linecap="null" stroke-linejoin="null" id="svg_48" y2="414.96822" x2="559.33262" y1="467.63465" x1="515.99947" fill-opacity="null" stroke-opacity="null" stroke-width="0.5" fill="none"/>
  <line stroke="#000" stroke-linecap="null" stroke-linejoin="null" id="svg_49" y2="414.96822" x2="543.99936" y1="467.63465" x1="500.66621" fill-opacity="null" stroke-opacity="null" stroke-width="0.5" fill="none"/>
  <line stroke="#000" stroke-linecap="null" stroke-linejoin="null" id="svg_50" y2="414.96822" x2="528.6661" y1="467.63465" x1="485.33295" fill-opacity="null" stroke-opacity="null" stroke-width="0.5" fill="none"/>
  <line stroke="#000" stroke-linecap="null" stroke-linejoin="null" id="svg_51" y2="414.96822" x2="511.99951" y1="467.63465" x1="468.66636" fill-opacity="null" stroke-opacity="null" stroke-width="0.5" fill="none"/>
  <line stroke="#000" stroke-linecap="null" stroke-linejoin="null" id="svg_52" y2="414.96822" x2="498.66624" y1="467.63465" x1="455.33309" fill-opacity="null" stroke-opacity="null" stroke-width="0.5" fill="none"/>
  <line stroke="#000" stroke-linecap="null" stroke-linejoin="null" id="svg_53" y2="414.96822" x2="478.66633" y1="467.63465" x1="435.33318" fill-opacity="null" stroke-opacity="null" stroke-width="0.5" fill="none"/>
  <line stroke="#000" stroke-linecap="null" stroke-linejoin="null" id="svg_54" y2="414.96822" x2="461.33307" y1="467.63465" x1="417.99993" fill-opacity="null" stroke-opacity="null" stroke-width="0.5" fill="none"/>
  <line stroke="#000" stroke-linecap="null" stroke-linejoin="null" id="svg_55" y2="414.96822" x2="445.33315" y1="467.63465" x1="402" fill-opacity="null" stroke-opacity="null" stroke-width="0.5" fill="none"/>
  <line stroke="#000" stroke-linecap="null" stroke-linejoin="null" id="svg_56" y2="414.96822" x2="428.66656" y1="453.63471" x1="396.00003" fill-opacity="null" stroke-opacity="null" stroke-width="0.5" fill="none"/>
  <line stroke="#000" stroke-linecap="null" stroke-linejoin="null" id="svg_57" y2="414.96823" x2="412.66663" y1="435.63479" x1="394.66671" fill-opacity="null" stroke-opacity="null" stroke-width="0.5" fill="none"/>
  <line stroke="#000" stroke-linecap="null" stroke-linejoin="null" id="svg_58" y2="424.96818" x2="601.33242" y1="467.63465" x1="565.33258" fill-opacity="null" stroke-opacity="null" stroke-width="0.5" fill="none"/>
  <line stroke="#000" stroke-linecap="null" stroke-linejoin="null" id="svg_59" y2="445.63475" x2="599.9991" y1="467.63465" x1="581.33251" fill-opacity="null" stroke-opacity="null" stroke-width="0.5" fill="none"/>
  <line stroke="#000" stroke-linecap="null" stroke-linejoin="null" id="svg_65" y2="464.96799" x2="220.66751" y1="439.96823" x1="200.83435" fill-opacity="null" stroke-opacity="null" stroke-width="0.5" fill="none"/>
  <line stroke-linecap="null" stroke-linejoin="null" id="svg_66" y2="464.96799" x2="237.3341" y1="414.96822" x1="198.00094" fill-opacity="null" stroke-opacity="null" stroke-width="0.5" stroke="#000" fill="none"/>
  <line stroke-linecap="null" stroke-linejoin="null" id="svg_67" y2="464.96799" x2="253.33402" y1="414.96822" x1="214.00087" fill-opacity="null" stroke-opacity="null" stroke-width="0.5" stroke="#000" fill="none"/>
  <line stroke-linecap="null" stroke-linejoin="null" id="svg_68" y2="464.96799" x2="272.0006" y1="414.96822" x1="232.66745" fill-opacity="null" stroke-opacity="null" stroke-width="0.5" stroke="#000" fill="none"/>
  <line stroke-linecap="null" stroke-linejoin="null" id="svg_69" y2="464.96799" x2="288.00053" y1="414.96822" x1="248.66738" fill-opacity="null" stroke-opacity="null" stroke-width="0.5" stroke="#000" fill="none"/>
  <line stroke-linecap="null" stroke-linejoin="null" id="svg_70" y2="464.96799" x2="304.00046" y1="414.96822" x1="264.6673" fill-opacity="null" stroke-opacity="null" stroke-width="0.5" stroke="#000" fill="none"/>
  <line stroke-linecap="null" stroke-linejoin="null" id="svg_71" y2="464.96799" x2="320.00038" y1="414.96822" x1="280.66723" fill-opacity="null" stroke-opacity="null" stroke-width="0.5" stroke="#000" fill="none"/>
  <line stroke-linecap="null" stroke-linejoin="null" id="svg_72" y2="464.96799" x2="336.66697" y1="414.96822" x1="297.33382" fill-opacity="null" stroke-opacity="null" stroke-width="0.5" stroke="#000" fill="none"/>
  <line stroke="#000" stroke-linecap="null" stroke-linejoin="null" id="svg_73" y2="443.63476" x2="336.00031" y1="414.96823" x1="313.33373" fill-opacity="null" stroke-opacity="null" stroke-width="0.5" fill="none"/>
  <line stroke="#000" stroke-linecap="null" stroke-linejoin="null" id="svg_74" y2="414.96822" x2="330.66701" y1="467.63465" x1="287.33386" fill-opacity="null" stroke-opacity="null" stroke-width="0.5" fill="none"/>
  <line stroke="#000" stroke-linecap="null" stroke-linejoin="null" id="svg_75" y2="414.96822" x2="314.00042" y1="467.63465" x1="270.66727" fill-opacity="null" stroke-opacity="null" stroke-width="0.5" fill="none"/>
  <line stroke="#000" stroke-linecap="null" stroke-linejoin="null" id="svg_76" y2="414.96822" x2="296.00051" y1="467.63465" x1="252.66736" fill-opacity="null" stroke-opacity="null" stroke-width="0.5" fill="none"/>
  <line stroke="#000" stroke-linecap="null" stroke-linejoin="null" id="svg_77" y2="414.96822" x2="280.66724" y1="467.63465" x1="237.33409" fill-opacity="null" stroke-opacity="null" stroke-width="0.5" fill="none"/>
  <line stroke="#000" stroke-linecap="null" stroke-linejoin="null" id="svg_78" y2="414.96822" x2="265.33398" y1="467.63465" x1="222.00083" fill-opacity="null" stroke-opacity="null" stroke-width="0.5" fill="none"/>
  <line stroke="#000" stroke-linecap="null" stroke-linejoin="null" id="svg_79" y2="414.96822" x2="248.66739" y1="467.63465" x1="205.33424" fill-opacity="null" stroke-opacity="null" stroke-width="0.5" fill="none"/>
  <line stroke="#000" stroke-linecap="null" stroke-linejoin="null" id="svg_80" y2="414.96822" x2="235.33412" y1="454.13465" x1="200.50097" fill-opacity="null" stroke-opacity="null" stroke-width="0.5" fill="none"/>
  <line stroke="#000" stroke-linecap="null" stroke-linejoin="null" id="svg_81" y2="414.96823" x2="215.33421" y1="433.13465" x1="200.00107" fill-opacity="null" stroke-opacity="null" stroke-width="0.5" fill="none"/>
  <line stroke="#000" stroke-linecap="null" stroke-linejoin="null" id="svg_85" y2="424.96818" x2="338.00031" y1="467.63465" x1="302.00046" fill-opacity="null" stroke-opacity="null" stroke-width="0.5" fill="none"/>
  <line stroke-linecap="null" stroke-linejoin="null" id="svg_86" y2="415" x2="338" y1="414.96822" x1="200" fill-opacity="null" stroke-opacity="null" stroke-width="1.5" stroke="#000" fill="none"/>
  <line stroke="#000" stroke-linecap="null" stroke-linejoin="null" id="svg_88" y2="185.45312" x2="460.5" y1="131.95313" x1="399.00003" fill-opacity="null" stroke-opacity="null" stroke-width="1.5" fill="none"/>
  <line stroke="#000" stroke-linecap="null" stroke-linejoin="null" id="svg_90" y2="131.95312" x2="400.5" y1="185.45312" x1="339" fill-opacity="null" stroke-opacity="null" stroke-width="1.5" fill="none"/>
  <line stroke-linecap="null" stroke-linejoin="null" id="svg_91" y2="185" x2="459.5" y1="184.5" x1="339" fill-opacity="null" stroke-opacity="null" stroke-width="1.5" stroke="#000" fill="none"/>
  <line stroke-linecap="null" stroke-linejoin="null" id="svg_94" y2="240" x2="350" y1="185" x1="350" fill-opacity="null" stroke-opacity="null" stroke-width="3.5" stroke="#000" fill="none"/>
  <line stroke-linecap="null" stroke-linejoin="null" id="svg_95" y2="240" x2="449.5" y1="185" x1="449.5" fill-opacity="null" stroke-opacity="null" stroke-width="3.5" stroke="#000" fill="none"/>
  <line stroke-linecap="null" stroke-linejoin="null" id="svg_96" y2="239.5" x2="451" y1="239.5" x1="348.5" fill-opacity="null" stroke-opacity="null" stroke-width="3.5" stroke="#000" fill="none"/>
  <rect stroke="#000" id="svg_97" height="35" width="55.5" y="194" x="373" fill-opacity="null" stroke-opacity="null" stroke-width="3.5" fill="none"/>
  <line stroke="#000" stroke-linecap="null" stroke-linejoin="null" id="svg_98" y2="472.46862" x2="401.33333" y1="473.13528" x1="333.16668" fill-opacity="null" stroke-opacity="null" stroke-width="3.5" fill="none"/>
  <line stroke="#000" stroke-linecap="null" stroke-linejoin="null" id="svg_99" y2="484.46862" x2="401.33333" y1="485.13528" x1="333.16668" fill-opacity="null" stroke-opacity="null" stroke-width="3.5" fill="none"/>
  <line stroke="#000" stroke-linecap="null" stroke-linejoin="null" id="svg_100" y2="496.96862" x2="401.33333" y1="497.63528" x1="333.16668" fill-opacity="null" stroke-opacity="null" stroke-width="3.5" fill="none"/>
  <line stroke-linecap="null" stroke-linejoin="null" id="svg_101" y2="509.5" x2="334" y1="466.5" x1="333.5" fill-opacity="null" stroke-opacity="null" stroke-width="0.5" stroke="#000" fill="none"/>
  <line stroke-linecap="null" stroke-linejoin="null" id="svg_102" y2="509.5" x2="401.5" y1="466.5" x1="401" fill-opacity="null" stroke-opacity="null" stroke-width="0.5" stroke="#000" fill="none"/>
 </g>
</svg>